<svg width="283" height="497" viewBox="0 0 283 497" fill="none" xmlns="http://www.w3.org/2000/svg">
<path d="M115.78 248.498H51.532C49.6162 248.498 48.8738 246.005 50.4773 244.957L232.329 126.053C233.879 125.039 235.827 126.582 235.195 128.323L121.447 442.1C120.712 444.128 117.708 443.601 117.708 441.443V250.425C117.708 249.36 116.845 248.498 115.78 248.498Z" fill="white"/>
<path d="M68.2023 104.257V72.1087H53.1879V104.257H45.4531V65.5156H75.994V104.257H68.2023Z" fill="white"/>
<path d="M97.8283 87.1036C97.7904 86.0534 97.6008 85.1393 97.2596 84.3613C96.9563 83.5445 96.5392 82.8832 96.0084 82.3776C95.4776 81.833 94.8709 81.444 94.1884 81.2106C93.506 80.9384 92.8045 80.8022 92.0841 80.8022C90.6054 80.8022 89.3163 81.3662 88.2168 82.4943C87.1551 83.5834 86.5485 85.1198 86.3968 87.1036H97.8283ZM86.1693 91.8879C86.2831 94.0662 86.8897 95.7971 87.9893 97.0807C89.1267 98.3643 90.6054 99.0061 92.4254 99.0061C93.6387 99.0061 94.7003 98.7338 95.6103 98.1893C96.5582 97.6058 97.1648 96.8084 97.4302 95.7971H105.051C104.179 98.7533 102.663 101.029 100.501 102.624C98.3402 104.218 95.7619 105.016 92.7666 105.016C83.4394 105.016 78.7758 99.8035 78.7758 89.3791C78.7758 87.1619 79.0792 85.1587 79.6858 83.3694C80.2925 81.5802 81.1645 80.0437 82.302 78.7601C83.4774 77.4765 84.8992 76.5041 86.5675 75.8428C88.2357 75.1427 90.1505 74.7926 92.3116 74.7926C96.634 74.7926 99.8947 76.2124 102.094 79.0519C104.331 81.8913 105.449 86.17 105.449 91.8879H86.1693Z" fill="white"/>
<path d="M121.768 98.5394C126.014 98.5394 128.138 95.5832 128.138 89.6708C128.138 87.1036 127.55 85.0226 126.375 83.4278C125.199 81.7941 123.683 80.9773 121.825 80.9773C120.043 80.9773 118.545 81.7358 117.332 83.2528C116.156 84.7697 115.569 86.7535 115.569 89.204C115.569 95.4276 117.635 98.5394 121.768 98.5394ZM108.573 117.852V75.5511H115.682L115.739 79.0519C117.446 76.2124 120.043 74.7926 123.531 74.7926C125.275 74.7926 126.886 75.1427 128.365 75.8428C129.882 76.543 131.171 77.5543 132.233 78.8768C133.294 80.1993 134.128 81.8136 134.735 83.7195C135.342 85.6255 135.645 87.7843 135.645 90.1959C135.645 92.3741 135.379 94.3774 134.849 96.2055C134.356 97.9948 133.616 99.5507 132.631 100.873C131.645 102.196 130.432 103.226 128.991 103.966C127.588 104.666 125.976 105.016 124.157 105.016C120.706 105.016 117.938 103.518 115.853 100.523V117.852H108.573Z" fill="white"/>
<path d="M138.513 104.257V75.5511H157.863C159.531 75.5511 160.934 75.7456 162.072 76.1346C163.209 76.4846 164.138 76.9709 164.858 77.5932C165.579 78.2156 166.091 78.9546 166.394 79.8104C166.697 80.6661 166.849 81.5607 166.849 82.4943C166.849 84.2057 166.413 85.5866 165.541 86.6368C164.707 87.6481 163.626 88.3483 162.299 88.7373C162.982 88.8928 163.645 89.1651 164.29 89.5541C164.934 89.9042 165.503 90.3709 165.996 90.9544C166.527 91.5379 166.944 92.2575 167.247 93.1132C167.55 93.93 167.702 94.9025 167.702 96.0305C167.702 97.2363 167.493 98.3449 167.076 99.3562C166.659 100.368 166.015 101.243 165.143 101.982C164.271 102.682 163.114 103.246 161.673 103.674C160.271 104.063 158.583 104.257 156.612 104.257H138.513ZM155.531 98.8894C158.754 98.8894 160.365 97.5864 160.365 94.9803C160.365 92.413 158.906 91.1294 155.986 91.1294H145.566V98.8894H155.531ZM155.702 86.7624C156.915 86.7624 157.863 86.5096 158.545 86.0039C159.228 85.4594 159.569 84.8171 159.569 83.9529C159.569 81.7747 158.223 80.6855 155.531 80.6855H145.566V86.7624H155.702Z" fill="white"/>
<path d="M178.038 75.5511V84.7114H187.365C190.588 84.7114 193.09 85.5477 194.872 87.2203C196.692 88.854 197.602 91.2461 197.602 94.3968C197.602 97.5864 196.692 100.037 194.872 101.748C193.09 103.421 190.588 104.257 187.365 104.257H170.815V75.5511H178.038ZM178.038 90.1376V98.5977H186.91C188.275 98.5977 189.337 98.2476 190.095 97.5475C190.853 96.8084 191.232 95.7582 191.232 94.3968C191.232 92.9965 190.853 91.9463 190.095 91.2461C189.337 90.5071 188.275 90.1376 186.91 90.1376H178.038ZM199.991 104.257V75.5511H207.384V104.257H199.991Z" fill="white"/>
<path d="M229.74 87.1036C229.702 86.0534 229.512 85.1393 229.171 84.3613C228.868 83.5445 228.451 82.8832 227.92 82.3776C227.389 81.833 226.783 81.444 226.1 81.2106C225.418 80.9384 224.716 80.8022 223.996 80.8022C222.517 80.8022 221.228 81.3662 220.128 82.4943C219.067 83.5834 218.46 85.1198 218.309 87.1036H229.74ZM218.081 91.8879C218.195 94.0662 218.801 95.7971 219.901 97.0807C221.038 98.3643 222.517 99.0061 224.337 99.0061C225.55 99.0061 226.612 98.7338 227.522 98.1893C228.47 97.6058 229.076 96.8084 229.342 95.7971H236.963C236.091 98.7533 234.574 101.029 232.413 102.624C230.252 104.218 227.674 105.016 224.678 105.016C215.351 105.016 210.688 99.8035 210.688 89.3791C210.688 87.1619 210.991 85.1587 211.597 83.3694C212.204 81.5802 213.076 80.0437 214.214 78.7601C215.389 77.4765 216.811 76.5041 218.479 75.8428C220.147 75.1427 222.062 74.7926 224.223 74.7926C228.546 74.7926 231.806 76.2124 234.005 79.0519C236.242 81.8913 237.361 86.17 237.361 91.8879H218.081Z" fill="white"/>
</svg>
